<?xml version="1.0" encoding="utf-8"?>
<!-- Generator: Adobe Illustrator 22.0.1, SVG Export Plug-In . SVG Version: 6.00 Build 0)  -->
<svg version="1.1" id="Layer_1" xmlns="http://www.w3.org/2000/svg" xmlns:xlink="http://www.w3.org/1999/xlink" x="0px" y="0px"
	 viewBox="0 0 1075.7 257" style="enable-background:new 0 0 1075.7 257;" xml:space="preserve">
<style type="text/css">
	.st0{stroke:#000000;stroke-width:0.5;stroke-miterlimit:10;}
	.st1{fill:#1BB1BF;}
	.st2{fill:#FFFFFF;}
	.st3{fill:#BAE7EB;}
	.st4{fill:#A2B63B;}
	.st5{fill:#678842;}
	.st6{fill:#FEBF12;}
	.st7{fill:#FFFFFF;stroke:#000000;stroke-width:3;stroke-miterlimit:10;}
	.st8{fill:none;stroke:#000000;stroke-width:3;}
	.st9{fill:none;}
	.st10{fill:none;stroke:#000000;stroke-width:4;stroke-miterlimit:10;}
	.st11{fill:none;stroke:#1BB0BE;stroke-width:4;stroke-miterlimit:10;}
	.st12{fill:none;stroke:#000000;stroke-width:4;stroke-miterlimit:10;stroke-dasharray:4,6;}
</style>
<g>
	<path class="st0" d="M567,113.3h-39.3c-7.6,0-13.8-6.2-13.8-13.8c0-7.6,6.2-13.8,13.8-13.8h48.4v4.1h-48.4c-5.4,0-9.7,4.4-9.7,9.7
		s4.4,9.7,9.7,9.7H567V113.3z"/>
</g>
<g>
	<path class="st1" d="M217.7,177.5c0,16.1-13.1,29.2-29.2,29.2c-16.1,0-29.2-13.1-29.2-29.2c0-16.1,13.1-29.2,29.2-29.2
		C204.6,148.3,217.7,161.4,217.7,177.5z"/>
	<g>
		<polygon points="188.1,181 173.7,166.4 176.5,163.6 188.1,175.3 205.6,157.6 208.5,160.4 		"/>
	</g>
	<g>
		<circle class="st2" cx="188.5" cy="177.5" r="6.3"/>
		<path d="M188.5,185.9c-4.6,0-8.3-3.7-8.3-8.3c0-4.6,3.7-8.3,8.3-8.3c4.6,0,8.3,3.7,8.3,8.3C196.9,182.1,193.1,185.9,188.5,185.9z
			 M188.5,173.2c-2.4,0-4.3,1.9-4.3,4.3s1.9,4.3,4.3,4.3c2.4,0,4.3-1.9,4.3-4.3S190.9,173.2,188.5,173.2z"/>
	</g>
	<g>
		<g>
			<rect x="185.5" y="147.8" width="4" height="4.9"/>
		</g>
		<g>
			<rect x="158.3" y="176.1" width="4.9" height="4"/>
		</g>
		<g>
			<rect x="186.7" y="202.4" width="4" height="4.9"/>
		</g>
		<g>
			<rect x="213" y="174.9" width="4.9" height="4"/>
		</g>
	</g>
</g>
<g>
	<g>
		<g>
			<polygon points="40,94.7 37.4,92.1 44,85.5 37.4,78.9 40,76.2 49.3,85.5 			"/>
		</g>
		<g>
			<rect x="17.3" y="83.6" width="28.7" height="3.7"/>
		</g>
	</g>
	<g>
		<g>
			<rect x="31.9" y="46.2" width="18.1" height="3.7"/>
		</g>
		<g>
			<rect x="22.5" y="46.2" width="6" height="3.7"/>
		</g>
	</g>
	<g>
		<g>
			<rect x="9.5" y="59.3" width="18.1" height="3.7"/>
		</g>
		<g>
			<rect y="59.3" width="6" height="3.7"/>
		</g>
	</g>
</g>
<g>
	<g>
		<rect x="683.6" y="183.5" class="st2" width="105.1" height="71.6"/>
		<path d="M790.6,257H681.6v-75.5h108.9V257z M685.5,253.1h101.2v-67.7H685.5V253.1z"/>
	</g>
	<rect x="691" y="190.9" class="st3" width="90.3" height="56.8"/>
	<rect x="729.7" y="185.5" class="st4" width="12.9" height="67.6"/>
	<g>
		<g>
			<path d="M727.3,221.7h-28.2c-10.5,0-17.3-7.9-17.3-20.2v-12.6h3.9v12.6c0,7.9,3.5,16.3,13.4,16.3h28.2L727.3,221.7L727.3,221.7z"
				/>
		</g>
		<g>
			<path d="M773.1,221.7h-27.4v-3.9h27.4c6.5,0,13.4-4.3,13.4-16.4v-12.6h3.9v12.6C790.5,213.5,783.5,221.7,773.1,221.7z"/>
		</g>
	</g>
	<g>
		<polygon points="761.9,182.1 758,182.1 758,171.8 714.3,171.8 714.3,182.1 710.4,182.1 710.4,167.9 761.9,167.9 		"/>
	</g>
	<g>
		<path class="st2" d="M722.5,134.1v4.3c-2.6,1.9-4.3,5-4.3,8.5v18.5l0.2,4.1c0,2.2,1.8,4,4,4c2.2,0,4-0.8,4-3v1c0,2.2,1.8,4,4,4
			s4-1.8,4-4v2c0,2.2,1.8,4,4,4s4-1.8,4-4v-2.2c0,1.9,1.9,3.8,4.1,3.8c2.3,0,4.1-1.8,4.1-4.1l0-16.9l0.1,2v8.2
			c0,3.3,2.7,6.1,6.1,6.1h2c0.1,0-0.1,0,0,0v-7.6c0,0,0,0,0,0v-10.1l-11.5-13.4c-1.3-1.3-3-2.2-4.8-2.6v-2.5"/>
		<path d="M738.2,179.5c-2.1,0-3.9-1.1-5-2.8c-0.9,0.5-1.9,0.8-2.9,0.8c-2,0-3.8-1-4.9-2.5c-0.8,0.4-1.8,0.6-3.1,0.6
			c-3.3,0-5.9-2.7-5.9-5.9l-0.2-4l0-18.6c0-3.7,1.6-7.1,4.3-9.5v-6.4h3.9v8.3l-0.8,0.6c-2.2,1.7-3.5,4.2-3.5,7v18.5l0.2,4
			c0,1.2,0.9,2.1,2,2.1c2,0,2-0.7,2-1h3.9v1c0,1.1,0.9,2,2,2c1.1,0,2-0.9,2-2h3.9v2c0,1.1,0.9,2,2,2s2-0.9,2-2v-2.2h3.9
			c0,0.7,0.9,1.9,2.2,1.9c1.2,0,2.2-1,2.2-2.2l0-16.9l3.9-0.1l0.1,2l0,8.3c0,2.3,1.8,4.1,4.1,4.1h0.1v-5.5l-0.2-1.6l0.2-0.1v-7.9
			l-10.9-12.7c-1.1-1-2.4-1.7-3.9-2.1l-1.5-0.4v-7.1h3.9v4.1c1.6,0.6,3,1.5,4.2,2.6l0.1,0.1l11.9,13.9l0.1,12.2l-0.1,0v4.4l0.1,0
			l-0.1,2.2v1.3l-0.1,0l0,0.1l-3.9,0c-1.5,0-3-0.4-4.2-1.2v0c0,3.3-2.7,6-6,6c-1,0-2-0.3-2.9-0.7
			C742.4,178.2,740.5,179.5,738.2,179.5z"/>
	</g>
	<g>
		<g>
			<g>
				<g>
					<rect x="739.1" y="183.8" width="3.9" height="24.4"/>
				</g>
				<g>
					<rect x="729.2" y="183.8" width="3.9" height="24.4"/>
				</g>
			</g>
			<g>
				<g>
					<rect x="739.1" y="231" width="3.9" height="23.2"/>
				</g>
				<g>
					<rect x="729.2" y="231" width="3.9" height="23.2"/>
				</g>
			</g>
			<g>
				<path d="M742,233.5h-11.8c-2.2,0-3.9-1.8-3.9-3.9v-18.8c0-2.2,1.8-3.9,3.9-3.9H742c2.2,0,3.9,1.8,3.9,3.9v18.8
					C746,231.8,744.2,233.5,742,233.5z M730.2,210.8l0,18.8l11.9,0c0,0,0,0,0,0v-18.8L730.2,210.8z"/>
			</g>
			<g>
				<rect x="734.2" y="223.7" width="3.9" height="6.7"/>
			</g>
		</g>
	</g>
</g>
<g>
	<g>
		<g>
			<path class="st5" d="M611,187.3h-38.9v-87.1c0-50.1,40.7-90.9,90.8-90.9c50.1,0,90.9,40.8,90.9,90.9v32.6h-38.9v-32.6
				c0-28.7-23.3-52-52-52c-28.6,0-51.9,23.3-51.9,52L611,187.3L611,187.3z"/>
		</g>
	</g>
</g>
<path class="st2" d="M504.6,169v-16.2c0-2.5,2-4.5,4.5-4.5l0,0c2.5,0,4.5,2,4.5,4.5V169"/>
<path class="st2" d="M513.7,169v-25.9c0-2.5,2-4.5,4.5-4.5l0,0c2.5,0,4.5,2,4.5,4.5V169"/>
<path class="st2" d="M522.8,169v-30.5c0-2.5,2-4.5,4.5-4.5l0,0c2.5,0,4.5,2,4.5,4.5V169"/>
<path class="st2" d="M531.9,169v-22.8c0-2.5,2-4.5,4.5-4.5l0,0c2.5,0,4.5,2,4.5,4.5V169"/>
<g>
	<g>
		<polygon points="676.5,90.2 666.7,80.4 669.5,77.5 676.5,84.5 706.4,54.6 719.6,67.8 752.7,34.7 755.5,37.5 719.6,73.5 
			706.4,60.2 		"/>
	</g>
	<g>
		<polygon points="758.1,54.7 754.1,54.7 754.1,37.5 736.8,37.5 736.8,33.5 758.1,33.5 		"/>
	</g>
</g>
<g>
	<g>
		<g>
			<path class="st2" d="M108.1,17.3L84.6,38.4v22.8c0.1,0,10.4,0.6,10.4-7.5l0-10.6l17.2-10.8h23l5.6,9.5c0,0,0.1,0.2,0.1,0.2
				l0,14.5c0.1,4.3,5,7.8,9.3,7.6c0,0,1-0.1,1.1-0.1V45.7l0.1,0l0-13.5h0.8h6.6h10.4V7h-19.9C148.8,7,108.6,15.2,108.1,17.3z"/>
			<path d="M139,56.5l0-14.1l-4.9-8.3h-21.4l-15.8,10l0,9.6c0,6.9-6.1,9.4-11.7,9.4c-0.4,0-0.6,0-0.7,0L82.7,63V37.6l23.8-21.4
				c0.7-1.2,3.7-2.5,21.8-6.7c8.2-1.9,20.3-4.4,21-4.4H171v29h-17.8l0,11.6l-0.1,2.6l0,17.4l-1.7,0.1c-0.1,0-1.1,0.1-1.1,0.1l-0.4,0
				C144.9,66.1,139.1,62.2,139,56.5z M149.4,30.4h17.8V8.8h-17.9c-3.3,0.5-35.6,7.4-39.7,9.6L86.5,39.3v20c2.7-0.2,6.7-1.3,6.7-5.6
				l0-11.6l18.5-11.6h24.6l6.1,10.4l0.4,0.7l0,15c0.1,3.1,3.5,5.5,6.7,5.8V45.7l0.1-2.6L149.4,30.4z"/>
		</g>
	</g>
	<path class="st6" d="M101.4,84.8l-13.4-5.6l14.9-35.8l35.8,14.9l-5.8,13.9c-0.1,0.1-0.1,0.1-0.2,0.2c0,0,0,0,0,0
		c-0.1,0.1-0.1,0.1-0.2,0.1c0,0,0,0,0,0c-0.1,0.1-0.3,0.1-0.4,0.2c0,0-0.1,0-0.1,0c-0.1,0-0.1,0-0.2,0c-0.1,0-0.1,0-0.2,0
		c0,0-0.1,0-0.1,0c-0.1,0-0.1,0-0.2,0c0,0-0.1,0-0.1,0c-0.1,0-0.2-0.1-0.3-0.1c-0.6-0.2-0.9-0.7-1.1-1.2c-0.5-1.8-1.8-3.4-3.7-4.2
		c-3.2-1.3-7,0.2-8.3,3.4c-1.3,3.2,0.2,7,3.4,8.3c1.9,0.8,3.9,0.6,5.6-0.4c0.5-0.3,1.1-0.3,1.6-0.1c0.1,0,0.2,0.1,0.3,0.2
		c0,0,0.1,0,0.1,0.1c0.1,0,0.1,0.1,0.2,0.1c0,0,0.1,0.1,0.1,0.1c0,0,0.1,0.1,0.1,0.1c0,0,0.1,0.1,0.1,0.1c0,0,0,0,0,0.1
		c0.1,0.1,0.1,0.3,0.2,0.4c0,0,0,0,0,0c0,0.1,0,0.2,0.1,0.2c0,0,0,0,0,0c0,0.1,0,0.2,0,0.3l-5.8,13.9l-13.4-5.6
		c-0.9-0.3-1.9,0.2-2.3,1.1c-0.2,0.6-0.2,1.1,0.1,1.6c0.9,1.7,1.1,3.7,0.4,5.6c-1.3,3.2-5.1,4.8-8.3,3.4c-3.2-1.3-4.8-5.1-3.4-8.3
		c0.8-1.9,2.4-3.2,4.2-3.7c0.5-0.2,1-0.5,1.2-1.1C102.6,86.2,102.2,85.2,101.4,84.8z"/>
</g>
<g>
	<g>
		<g>
			<path class="st4" d="M347.8,257c-48.2,0-87.4-39.2-87.5-87.4l0-20.1l37.4,0l0,20.1c0,27.6,22.5,50,50,50
				c27.5,0,49.9-22.5,49.9-50l-0.1-62.8l37.3-1.5l0.2,64.2C435.1,217.7,396,257,347.8,257z"/>
		</g>
	</g>
</g>
<g>
	<path class="st4" d="M397.7,169.5l37.4,0l-0.2-70.2c0-54.7-44.4-99.2-99.1-99.2L162.7,0l0,37.4l173.1,0.1c34,0,61.7,27.7,61.7,61.8
		L397.7,169.5z"/>
</g>
<g>
	<g>
		<rect x="337" y="154.3" width="34.2" height="4"/>
	</g>
	<g>
		<rect x="337" y="164.2" width="34.2" height="4"/>
	</g>
	<g>
		<polygon points="324.2,166.2 319.1,161.4 321.8,158.5 323.8,160.4 330.2,152.3 333.3,154.8 		"/>
	</g>
	<g>
		<rect x="337" y="178.6" width="34.2" height="4"/>
	</g>
	<g>
		<rect x="337" y="188.5" width="34.2" height="4"/>
	</g>
	<g>
		<polygon points="324.2,190.5 319.1,185.7 321.8,182.8 323.8,184.6 330.2,176.5 333.3,179 		"/>
	</g>
</g>
<g>
	<g>
		<path class="st6" d="M260.6,101.5h20.5c0.1-1.9,0.6-4.5,1.8-6.1c7.6-9.8,8.1-19,8.1-19.7c0-11.1-9-20.1-20.1-20.1
			c-11.1,0-20.1,9-20.1,20.1c0,0.7,0.5,9.9,8.1,19.7C260.1,97,260.5,99.5,260.6,101.5z"/>
		<g>
			<path class="st2" d="M257.7,75.6h-3c0-8.9,7.3-16.2,16.3-16.2v3C263.6,62.4,257.7,68.3,257.7,75.6z"/>
		</g>
		<g>
			<g>
				<rect x="264" y="83.6" transform="matrix(0.9841 -0.1774 0.1774 0.9841 -12.1771 48.5118)" width="2.4" height="17.5"/>
			</g>
			<g>
				<rect x="267.9" y="91.2" transform="matrix(0.1772 -0.9842 0.9842 0.1772 136.7009 348.2383)" width="17.5" height="2.4"/>
			</g>
		</g>
		<g>
			<polygon points="276.2,87.1 275.1,87.1 273.3,86.2 271.4,87.1 270.4,87.1 268.5,86.2 266.6,87.1 265.6,87.1 263.2,85.9 
				264.3,83.8 266.1,84.7 268,83.8 269,83.8 270.9,84.7 272.8,83.8 273.8,83.8 275.7,84.7 277.5,83.8 278.6,85.9 			"/>
		</g>
		<g>
			<g>
				<rect x="257.8" y="100.2" width="26.1" height="3"/>
			</g>
			<g>
				<rect x="257.8" y="105.3" width="26.1" height="3"/>
			</g>
			<g>
				<rect x="257.8" y="110.3" width="26.1" height="3"/>
			</g>
			<g>
				<rect x="261.4" y="115.4" width="19" height="3"/>
			</g>
			<g>
				<rect x="259.3" y="102" width="3" height="9.6"/>
			</g>
		</g>
	</g>
	<g>
		<path class="st2" d="M278.1,140.8c-0.2-5.4-4.4-12-10.6-14.4"/>
		<path d="M276.5,140.9c-0.1-4.7-3.8-10.8-9.6-13l1.1-2.8c7,2.7,11.4,10.1,11.6,15.8L276.5,140.9z"/>
	</g>
	<g>
		<polyline class="st2" points="254.3,130.2 252.4,131.9 269.7,147.5 		"/>
		<polygon points="268.7,148.6 250.2,131.9 253.2,129 255.3,131.3 254.7,131.8 270.8,146.4 		"/>
	</g>
	<g>
		<path class="st2" d="M292.5,149.5l0-32.5l-5.8-13l-12.9,0.2c0,0.1,0,0.2,0,0.3l0,2.1c0.1,3.6,3,6.4,6.5,6.3l1.4,0l2,6
			c-4,3-6.8,8.7-6.8,15.2c0,5,1.6,9.6,4.2,12.7"/>
		<path d="M280.1,147.8c-2.9-3.6-4.5-8.5-4.5-13.7c0-6.3,2.5-12.3,6.5-15.8l-1.3-3.9l-0.3,0c0,0-0.1,0-0.1,0c-4.4,0-7.9-3.5-8-7.8
			l0-2.1c0-0.1,0-0.2,0-0.3l0-1.5l1.5-0.1l13.9-0.2l6.3,14.2l0,32.8l-3,0l0-32.2l-5.3-11.8l-10.4,0.2l0,0.9c0,2.7,2.2,4.8,4.9,4.8
			c0,0,0.1,0,0.1,0l2.5-0.1l2.7,8.1l-0.9,0.7c-3.8,2.8-6.2,8.2-6.2,14c0,4.5,1.4,8.8,3.9,11.8L280.1,147.8z"/>
	</g>
	<g>
		<g>
			<path class="st2" d="M255.2,127.7c-0.7,1.9,0.2,4.1,2.1,4.8l2.7,1.1c1.9,0.7,4.1-0.2,4.8-2.1l0,0c0.7-1.9-0.2-4.1-2.1-4.8
				l-2.7-1.1C258.1,124.8,255.9,125.8,255.2,127.7L255.2,127.7z"/>
			<path d="M261.4,135.3L261.4,135.3c-0.7,0-1.3-0.1-1.9-0.4l-2.7-1.1c-2.7-1.1-4-4.1-3-6.8c0.8-2,2.7-3.3,4.9-3.3
				c0.6,0,1.3,0.1,1.9,0.4l2.7,1.1c1.3,0.5,2.3,1.5,2.9,2.8c0.6,1.3,0.6,2.7,0.1,4C265.5,134,263.5,135.3,261.4,135.3z M258.7,126.8
				c-0.9,0-1.7,0.5-2,1.4c-0.4,1.1,0.1,2.4,1.2,2.8l2.7,1.1c1.1,0.4,2.4-0.2,2.8-1.2c0.2-0.5,0.2-1.1,0-1.7
				c-0.2-0.5-0.7-0.9-1.2-1.2l-2.7-1.1C259.2,126.9,258.9,126.8,258.7,126.8z"/>
		</g>
		<g>
			<path class="st2" d="M260.4,118.8c-1.4,1.5-1.2,3.9,0.3,5.2l2.2,1.9c1.5,1.4,3.9,1.2,5.2-0.3l0,0c1.4-1.5,1.2-3.9-0.3-5.2
				l-2.2-1.9C264.1,117.1,261.8,117.2,260.4,118.8L260.4,118.8z"/>
			<path d="M265.4,128.4L265.4,128.4c-1.3,0-2.5-0.5-3.5-1.3l-2.2-1.9c-2.2-1.9-2.4-5.2-0.4-7.4c1-1.1,2.4-1.8,3.9-1.8
				c1.3,0,2.5,0.5,3.5,1.3l2.2,1.9c1,0.9,1.7,2.2,1.7,3.6c0.1,1.4-0.4,2.7-1.3,3.8C268.3,127.8,266.9,128.4,265.4,128.4z M263.2,119
				c-0.6,0-1.2,0.3-1.6,0.7c-0.8,0.9-0.7,2.3,0.2,3.1l2.2,1.9c0.4,0.4,0.9,0.6,1.5,0.6l0,0c0.6,0,1.2-0.3,1.6-0.7
				c0.4-0.4,0.6-1,0.5-1.6c0-0.6-0.3-1.1-0.7-1.5l-2.2-1.9C264.3,119.2,263.7,119,263.2,119z"/>
		</g>
		<g>
			<path class="st2" d="M250.9,128.7c0,2.1,1.7,3.7,3.7,3.7l2.9,0c2,0,3.7-1.7,3.7-3.7l0,0c0-2-1.7-3.7-3.7-3.7h-2.9
				C252.5,125,250.9,126.7,250.9,128.7L250.9,128.7z"/>
			<path d="M254.6,134L254.6,134c-2.9,0-5.2-2.4-5.2-5.2c0-2.9,2.4-5.2,5.2-5.2h2.9c2.9,0,5.2,2.3,5.2,5.2c0,2.9-2.4,5.2-5.2,5.2
				L254.6,134z M254.6,126.6c-1.2,0-2.2,1-2.2,2.2c0,1.2,1,2.2,2.2,2.2l2.9,0c1.2,0,2.2-1,2.2-2.2c0-1.2-1-2.2-2.2-2.2L254.6,126.6
				L254.6,126.6z"/>
		</g>
		<g>
			<path class="st2" d="M250.9,102.1c0,2,1.7,3.7,3.7,3.7l2.9,0c2,0,3.7-1.7,3.7-3.7l0,0c0-2.1-1.7-3.7-3.7-3.7h-2.9
				C252.5,98.4,250.9,100,250.9,102.1L250.9,102.1z"/>
			<path d="M254.6,107.3L254.6,107.3c-2.9,0-5.2-2.4-5.2-5.2c0-2.9,2.3-5.2,5.2-5.2h2.9c2.9,0,5.2,2.3,5.2,5.2
				c0,2.9-2.4,5.2-5.2,5.2L254.6,107.3z M254.6,99.9c-1.2,0-2.2,1-2.2,2.2c0,1.2,1,2.2,2.2,2.2l2.9,0c1.2,0,2.2-1,2.2-2.2
				c0-1.2-1-2.2-2.2-2.2C257.5,99.9,254.6,99.9,254.6,99.9z"/>
		</g>
		<g>
			<path class="st2" d="M249.3,120.2c0,2,1.7,3.7,3.7,3.7h8.5c2,0,3.7-1.7,3.7-3.7l0,0c0-2.1-1.7-3.7-3.7-3.7l-8.5,0
				C250.9,116.5,249.3,118.2,249.3,120.2L249.3,120.2z"/>
			<path d="M261.5,125.5H253c-2.9,0-5.2-2.4-5.2-5.2c0-2.9,2.4-5.2,5.2-5.2l8.5,0c2.9,0,5.2,2.3,5.2,5.2
				C266.7,123.1,264.4,125.5,261.5,125.5z M261.5,118.1l-8.5,0c-1.2,0-2.2,1-2.2,2.2c0,1.2,1,2.2,2.2,2.2h8.5c1.2,0,2.2-1,2.2-2.2
				C263.7,119,262.7,118.1,261.5,118.1z"/>
		</g>
		<g>
			<path class="st2" d="M249.3,111.7c0,2.1,1.7,3.7,3.7,3.7h6.9c2,0,3.7-1.7,3.7-3.7l0,0c0-2-1.7-3.7-3.7-3.7H253
				C250.9,108,249.3,109.7,249.3,111.7L249.3,111.7z"/>
			<path d="M259.9,117H253c-2.9,0-5.2-2.3-5.2-5.2s2.4-5.2,5.2-5.2h6.9c1.4,0,2.7,0.5,3.7,1.5c1,1,1.5,2.3,1.5,3.7
				c0,1.4-0.5,2.7-1.5,3.7C262.6,116.4,261.3,117,259.9,117z M253,109.6c-1.2,0-2.2,1-2.2,2.2s1,2.2,2.2,2.2h6.9
				c0.6,0,1.1-0.2,1.5-0.6s0.6-1,0.6-1.5c0-0.6-0.2-1.1-0.6-1.5s-1-0.6-1.5-0.6H253z"/>
		</g>
	</g>
</g>
<g>
	<rect x="453.1" y="40.7" class="st3" width="21" height="21"/>
	<path class="st7" d="M429.2,85.7H412c-1.5,0-2.7-1.2-2.7-2.7V55.2c0-1.5,1.2-2.7,2.7-2.7h47.6c1.5,0,2.7,1.2,2.7,2.7v27.7
		c0,1.5-1.2,2.7-2.7,2.7h-19H429.2z"/>
	<line class="st8" x1="413.4" y1="71" x2="422.9" y2="71"/>
	<line class="st8" x1="413.4" y1="76" x2="429.5" y2="76"/>
	<line class="st8" x1="425.3" y1="71" x2="434.9" y2="71"/>
	<line class="st8" x1="437.3" y1="71" x2="446.8" y2="71"/>
	<line class="st8" x1="449.2" y1="71" x2="458.7" y2="71"/>
	<rect x="409.3" y="59.4" width="53.1" height="5.9"/>
</g>
<g>
	<g>
		<path class="st2" d="M1038.8,178.1l0-10.4l-9.2-0.8c-0.6-3.4-1.9-6.6-3.6-9.4l6.2-7.3l-7.3-7.3l-7.1,6c-2.8-1.9-5.9-3.3-9.2-4.1
			l-0.8-9.5h-10.4l-0.8,9.2c-3.4,0.6-6.6,1.9-9.4,3.6l-7.3-6.2l-7.3,7.3l6,7.1c-1.9,2.8-3.3,5.9-4.1,9.2l-9.5,0.8l0,10.4l9.2,0.8
			c0.6,3.4,1.9,6.6,3.6,9.4l-6.2,7.3l7.3,7.3l7.1-6c2.8,1.9,5.9,3.3,9.2,4.1l0.8,9.5h10.4l0.8-9.2c3.4-0.6,6.6-1.9,9.4-3.6l7.3,6.2
			l7.3-7.3l-6-7.1c1.9-2.8,3.3-5.9,4.1-9.2L1038.8,178.1z"/>
		<path d="M1008.2,211.2h-14.1l-0.8-9.9c-2.5-0.7-4.9-1.8-7.2-3.2l-7.3,6.2l-9.9-9.9l6.4-7.6c-1.3-2.3-2.2-4.8-2.8-7.3l-9.6-0.8
			l0-14.1l9.9-0.8c0.7-2.5,1.8-4.9,3.2-7.2l-6.2-7.3l9.9-9.9l7.6,6.4c2.3-1.3,4.8-2.2,7.3-2.8l0.8-9.6h14.1l0.8,9.9
			c2.5,0.7,4.9,1.8,7.2,3.2l7.3-6.2l9.9,9.9l-6.4,7.6c1.3,2.3,2.2,4.8,2.8,7.3l9.6,0.8l0,14.1l-9.9,0.8c-0.7,2.5-1.8,4.9-3.2,7.2
			l6.2,7.3l-9.9,9.9l-7.6-6.4c-2.3,1.3-4.8,2.2-7.3,2.8L1008.2,211.2z M997.8,207.2h6.7l0.7-8.9l1.5-0.3c3.1-0.6,6.1-1.7,8.7-3.4
			l1.2-0.8l7,5.9l4.7-4.7l-5.8-6.8l0.9-1.3c1.8-2.6,3.1-5.5,3.8-8.6l0.3-1.4l9.1-0.8l0-6.7l-8.9-0.7l-0.3-1.5
			c-0.6-3.1-1.7-6.1-3.4-8.8l-0.8-1.2l5.9-7l-4.7-4.7l-6.8,5.8l-1.3-0.9c-2.6-1.8-5.5-3.1-8.6-3.8l-1.4-0.3l-0.8-9.1h-6.7l-0.7,8.9
			l-1.5,0.3c-3.1,0.6-6.1,1.7-8.7,3.4l-1.2,0.8l-7-5.9l-4.7,4.7l5.8,6.8l-0.9,1.3c-1.8,2.6-3.1,5.5-3.8,8.6l-0.3,1.4l-9.1,0.8l0,6.7
			l8.9,0.7l0.3,1.5c0.6,3.1,1.7,6.1,3.4,8.7l0.8,1.2l-5.9,7l4.7,4.7l6.8-5.8l1.3,0.9c2.6,1.8,5.5,3.1,8.6,3.8l1.4,0.3L997.8,207.2z"
			/>
	</g>
	<circle class="st4" cx="1001.8" cy="172.3" r="18.5"/>
	<g>
		<g>
			<path d="M1003.8,175.4l-6.3-2.4c-2.6-1.6-3.1-3.5-3.1-4.7v-2.6c0-3.2,2.6-5.9,5.9-5.9h3.1c3.2,0,5.9,2.6,5.9,5.9v1.2h-4v-1.2
				c0-1-0.8-1.9-1.9-1.9h-3.1c-1,0-1.9,0.8-1.9,1.9v2.6c0,0.2,0.3,0.7,1.1,1.2l5.7,2.2L1003.8,175.4z"/>
		</g>
		<g>
			<path d="M1003.4,185.3h-3.1c-3.2,0-5.9-2.6-5.9-5.9v-1.2h4v1.2c0,1,0.8,1.9,1.9,1.9h3.1c1,0,1.9-0.8,1.9-1.9v-2.6
				c0-0.2-0.3-0.7-1.2-1.3l-5.4-2.1l1.4-3.7l6,2.3c2.6,1.7,3.2,3.5,3.2,4.8v2.6C1009.2,182.6,1006.6,185.3,1003.4,185.3z"/>
		</g>
		<g>
			<line class="st9" x1="1002.1" y1="156.4" x2="1002.1" y2="162.2"/>
			<rect x="1000.1" y="156.4" width="4" height="5.8"/>
		</g>
		<g>
			<line class="st9" x1="1002.1" y1="182.3" x2="1002.1" y2="188.1"/>
			<rect x="1000.1" y="182.3" width="4" height="5.8"/>
		</g>
	</g>
</g>
<path class="st6" d="M1041.8,111c-0.3-0.9-0.6-1.7-1.1-2.4l3.6-4.2l-4.7-4.7l-4.4,3.7c-0.8-0.4-1.6-0.7-2.5-1l-0.5-5.5h-6.7
	l-0.5,5.7c-0.9,0.3-1.7,0.6-2.4,1.1l-4.2-3.6l-4.7,4.7l3.7,4.4c-0.4,0.8-0.7,1.6-1,2.5l-5.5,0.5v6.6l5.7,0.5
	c0.3,0.9,0.6,1.7,1.1,2.4l-3.6,4.2l4.7,4.7l4.4-3.7c0.8,0.4,1.6,0.7,2.5,1l0.5,5.5h6.6l0.5-5.7c0.9-0.3,1.7-0.6,2.4-1.1l4.2,3.6
	l4.7-4.7l-3.7-4.4c0.4-0.8,0.7-1.6,1-2.5l5.5-0.5l0-6.6L1041.8,111z M1035.6,115.1c0,3.5-2.8,6.4-6.4,6.4c-3.5,0-6.4-2.8-6.4-6.4
	c0-3.5,2.8-6.4,6.4-6.4C1032.7,108.8,1035.6,111.6,1035.6,115.1z"/>
<g>
	<path class="st0" d="M627,135.1h-6.3V131h6.3c4.9,0,8.9-4,8.9-8.9c0-4.9-4-8.9-8.9-8.9h-61.9v-4.1H627c7.2,0,13,5.8,13,13
		C640,129.3,634.2,135.1,627,135.1z"/>
</g>
<g>
	<path class="st2" d="M617,176.5c0,1.2-0.9,2.1-2.1,2.1H501.1c-1.2,0-2.1-0.9-2.1-2.1v-54.7c0-1.2,0.9-2.1,2.1-2.1h113.8
		c1.2,0,2.1,0.9,2.1,2.1V176.5z"/>
	<path class="st2" d="M614.9,179.1H501.1c-1.4,0-2.6-1.2-2.6-2.6v-54.7c0-1.4,1.2-2.6,2.6-2.6h113.8c1.4,0,2.6,1.2,2.6,2.6v54.7
		C617.5,177.9,616.4,179.1,614.9,179.1z M501.1,120.2c-0.9,0-1.6,0.7-1.6,1.6v54.7c0,0.9,0.7,1.6,1.6,1.6h113.8
		c0.9,0,1.6-0.7,1.6-1.6v-54.7c0-0.9-0.7-1.6-1.6-1.6H501.1z"/>
</g>
<g>
	<path d="M496.7,117.5c-2.6,0-4.6,2-4.6,4.4v54.7c0,2.4,2.1,4.4,4.6,4.4h120.8c2.6,0,4.6-2,4.6-4.4v-54.7c0-2.4-2.1-4.4-4.6-4.4
		H496.7z M617.3,176.4H496.8V122h120.5V176.4z M497.6,175.6h118.9v-52.9H497.6V175.6z"/>
</g>
<polygon class="st2" points="496.8,176.6 616.8,176.6 616.8,122.6 496.8,122 "/>
<g>
	<g>
		<g>
			<line class="st9" x1="506.9" y1="130.4" x2="515.9" y2="130.4"/>
			<rect x="506.9" y="127.8" class="st1" width="9" height="5.3"/>
		</g>
		<g>
			<line class="st9" x1="519.9" y1="130.4" x2="528.9" y2="130.4"/>
			<rect x="519.9" y="127.8" class="st1" width="9" height="5.3"/>
		</g>
		<g>
			<line class="st9" x1="533" y1="130.4" x2="542" y2="130.4"/>
			<rect x="533" y="127.8" class="st1" width="9" height="5.3"/>
		</g>
		<g>
			<line class="st9" x1="546" y1="130.4" x2="555" y2="130.4"/>
			<rect x="546" y="127.8" class="st1" width="9" height="5.3"/>
		</g>
		<g>
			<line class="st9" x1="559.1" y1="130.4" x2="568.1" y2="130.4"/>
			<rect x="559.1" y="127.8" class="st1" width="9" height="5.3"/>
		</g>
		<g>
			<line class="st9" x1="572.1" y1="130.4" x2="581.1" y2="130.4"/>
			<rect x="572.1" y="127.8" class="st1" width="9" height="5.3"/>
		</g>
		<g>
			<line class="st9" x1="585.2" y1="130.4" x2="594.2" y2="130.4"/>
			<rect x="585.2" y="127.8" class="st1" width="9" height="5.3"/>
		</g>
		<g>
			<line class="st9" x1="598.2" y1="130.4" x2="607.2" y2="130.4"/>
			<rect x="598.2" y="127.8" class="st1" width="9" height="5.3"/>
		</g>
	</g>
	<g>
		<g>
			<line class="st9" x1="506.9" y1="142.5" x2="515.9" y2="142.5"/>
			<rect x="506.9" y="139.9" class="st1" width="9" height="5.3"/>
		</g>
		<g>
			<line class="st9" x1="519.9" y1="142.5" x2="528.9" y2="142.5"/>
			<rect x="519.9" y="139.9" class="st1" width="9" height="5.3"/>
		</g>
		<g>
			<line class="st9" x1="533" y1="142.5" x2="542" y2="142.5"/>
			<rect x="533" y="139.9" class="st1" width="9" height="5.3"/>
		</g>
		<g>
			<line class="st9" x1="546" y1="142.5" x2="555" y2="142.5"/>
			<rect x="546" y="139.9" class="st1" width="9" height="5.3"/>
		</g>
		<g>
			<line class="st9" x1="559.1" y1="142.5" x2="568.1" y2="142.5"/>
			<rect x="559.1" y="139.9" class="st1" width="9" height="5.3"/>
		</g>
		<g>
			<line class="st9" x1="572.1" y1="142.5" x2="581.1" y2="142.5"/>
			<rect x="572.1" y="139.9" class="st1" width="9" height="5.3"/>
		</g>
		<g>
			<line class="st9" x1="585.2" y1="142.5" x2="594.2" y2="142.5"/>
			<rect x="585.2" y="139.9" class="st1" width="9" height="5.3"/>
		</g>
		<g>
			<line class="st9" x1="598.2" y1="142.5" x2="607.2" y2="142.5"/>
			<rect x="598.2" y="139.9" class="st1" width="9" height="5.3"/>
		</g>
	</g>
	<g>
		<g>
			<line class="st9" x1="506.9" y1="154.6" x2="515.9" y2="154.6"/>
			<rect x="506.9" y="151.9" class="st1" width="9" height="5.3"/>
		</g>
		<g>
			<line class="st9" x1="519.9" y1="154.6" x2="528.9" y2="154.6"/>
			<rect x="519.9" y="151.9" class="st1" width="9" height="5.3"/>
		</g>
		<g>
			<line class="st9" x1="533" y1="154.6" x2="542" y2="154.6"/>
			<rect x="533" y="151.9" class="st1" width="9" height="5.3"/>
		</g>
		<g>
			<line class="st9" x1="546" y1="154.6" x2="555" y2="154.6"/>
			<rect x="546" y="151.9" class="st1" width="9" height="5.3"/>
		</g>
		<g>
			<line class="st9" x1="559.1" y1="154.6" x2="568.1" y2="154.6"/>
			<rect x="559.1" y="151.9" class="st1" width="9" height="5.3"/>
		</g>
		<g>
			<line class="st9" x1="572.1" y1="154.6" x2="581.1" y2="154.6"/>
			<rect x="572.1" y="151.9" class="st1" width="9" height="5.3"/>
		</g>
		<g>
			<line class="st9" x1="585.2" y1="154.6" x2="594.2" y2="154.6"/>
			<rect x="585.2" y="151.9" class="st1" width="9" height="5.3"/>
		</g>
		<g>
			<line class="st9" x1="598.2" y1="154.6" x2="607.2" y2="154.6"/>
			<rect x="598.2" y="151.9" class="st1" width="9" height="5.3"/>
		</g>
	</g>
	<g>
		<g>
			<line class="st9" x1="506.9" y1="166.6" x2="515.9" y2="166.6"/>
			<rect x="506.9" y="164" class="st1" width="9" height="5.3"/>
		</g>
		<g>
			<line class="st9" x1="519.9" y1="166.6" x2="528.9" y2="166.6"/>
			<rect x="519.9" y="164" class="st1" width="9" height="5.3"/>
		</g>
		<g>
			<line class="st9" x1="533" y1="166.6" x2="581.2" y2="166.6"/>
			<rect x="533" y="164" class="st1" width="48.3" height="5.3"/>
		</g>
		<g>
			<line class="st9" x1="585.2" y1="166.6" x2="594.2" y2="166.6"/>
			<rect x="585.2" y="164" class="st1" width="9" height="5.3"/>
		</g>
		<g>
			<line class="st9" x1="598.2" y1="166.6" x2="607.2" y2="166.6"/>
			<rect x="598.2" y="164" class="st1" width="9" height="5.3"/>
		</g>
	</g>
</g>
<g>
	<path class="st2" d="M614.3,170.6c0-2.5-2-4.5-4.5-4.5c-2.5,0-4.5,0.9-4.5,3.3v-1.1c0-2.5-2-4.5-4.5-4.5c-2.5,0-4.5,2-4.5,4.5v-2.2
		c0-2.5-2-4.5-4.5-4.5c-2.5,0-4.5,2-4.5,4.5v2.5c0-6,0-25.7,0-25.7c0-2.5-2.1-4.6-4.6-4.6c-2.6,0-4.6,2.1-4.6,4.6l0,45.1l-0.1-2.2
		v-9.2c0-3.8-3-6.8-6.8-6.8H569c-0.1,0,0.1,0,0,0v8.5c0,0,0,0,0,0v11.3l12.9,15c1.5,1.4,3.3,2.4,5.4,3v9.1h22.3v-11.2
		c2.9-2.2,4.8-5.7,4.8-9.6v-20.8L614.3,170.6z"/>
	<path d="M611.7,218.9h-26.3v-9.7c-1.8-0.7-3.4-1.7-4.8-3l-0.1-0.1L567,190.5l0.1-22.6h4.2c1.8,0,3.5,0.6,4.9,1.5l0-26.4
		c0-3.6,3-6.6,6.6-6.6s6.6,3,6.6,6.6l0,0c0,0,0,9.4,0,17.2c0.8-0.3,1.6-0.5,2.5-0.5c2.4,0,4.4,1.3,5.6,3.2c1-0.6,2.1-0.9,3.4-0.9
		c2.3,0,4.2,1.2,5.4,2.9c0.9-0.4,2.1-0.7,3.5-0.7c3.6,0,6.5,2.9,6.5,6.5l0.2,4.5l0,20.9c0,4.1-1.7,7.9-4.8,10.6L611.7,218.9
		L611.7,218.9z M589.4,214.9h18.3v-10.2l0.8-0.6c2.6-1.9,4-4.8,4-8v-20.8l-0.2-4.5c0-1.5-1.1-2.6-2.5-2.6c-2.5,0-2.5,0.9-2.5,1.3h-4
		v-1.1c0-1.4-1.1-2.5-2.5-2.5s-2.5,1.1-2.5,2.5h-4v-2.2c0-1.4-1.1-2.5-2.5-2.5s-2.5,1.1-2.5,2.5l0,2.5l-4,0v0c0-6.1,0-25.7,0-25.7
		c0-1.4-1.2-2.6-2.6-2.6s-2.6,1.2-2.6,2.6l0,45.1l-4,0.1l-0.1-2.2l0-9.3c0-2.7-2.2-4.8-4.8-4.8H571v6.4v1.6v9.2l12.4,14.4
		c1.2,1.2,2.8,2,4.4,2.4l1.5,0.4L589.4,214.9L589.4,214.9z"/>
	<rect x="577.7" y="212.2" class="st6" width="45.4" height="18.4"/>
</g>
<g>
	<path class="st2" d="M501.6,151.1v44.9c0,3.9,1.9,7.4,4.8,9.6v11.2h10.7h11.6v-9.1c2.1-0.5,3.9-1.5,5.4-3l12.9-15v-11.3
		c0,0,0,0,0,0v-8.5c-0.1,0,0.1,0,0,0h-2.3c-3.8,0-6.8,3-6.8,6.8v9.2l-0.1,2.2l0-18.6l0-23.3l-3.8-3.8h-5.2l-1.7-7.4l-6.1-1.1l-2.1,6
		l-5.9-1.1l-1.9,5.6l-0.5,6l-4.6-2.2L501.6,151.1z"/>
	<path d="M530.7,218.9h-26.3v-12.2c-3.1-2.7-4.8-6.5-4.8-10.6v-27.2h4v27.2c0,3.2,1.5,6.1,4,8l0.8,0.6v10.2h18.3v-8.7l1.5-0.4
		c1.7-0.4,3.2-1.2,4.4-2.4l12.4-14.4v-9.1v-1.6v-6.4h-0.3c-2.7,0-4.8,2.2-4.8,4.8v9.2l-0.1,2.3l-4-0.1l0-19.2l4,0l0,0.5
		c1.4-1,3.1-1.5,4.9-1.5h4.2l0.1,22.6l-13.5,15.7c-1.4,1.3-3,2.3-4.8,3L530.7,218.9L530.7,218.9z"/>
	<path d="M512.5,169h-4v-16.2c0-1.4-1.1-2.5-2.5-2.5s-2.5,1.1-2.5,2.5V169h-4v-16.2c0-3.6,2.9-6.5,6.5-6.5c3.6,0,6.5,2.9,6.5,6.5
		V169z"/>
	<path d="M521.6,169h-4v-25.9c0-1.4-1.1-2.5-2.5-2.5s-2.5,1.1-2.5,2.5V169h-4v-25.9c0-3.6,2.9-6.5,6.5-6.5c3.6,0,6.5,2.9,6.5,6.5
		V169z"/>
	<path d="M530.7,169h-4v-30.5c0-1.4-1.1-2.5-2.5-2.5s-2.5,1.1-2.5,2.5V169h-4v-30.5c0-3.6,2.9-6.5,6.5-6.5c3.6,0,6.5,2.9,6.5,6.5
		V169z"/>
	<path d="M539.8,169h-4v-22.8c0-1.4-1.1-2.5-2.5-2.5s-2.5,1.1-2.5,2.5V169h-4v-22.8c0-3.6,2.9-6.5,6.5-6.5c3.6,0,6.5,2.9,6.5,6.5
		V169z"/>
	<rect x="493" y="212.2" class="st6" width="45.4" height="18.4"/>
</g>
<g>
	<polygon class="st3" points="902.8,141.6 902.8,122.6 883.9,122.6 	"/>
	<g>
		<g>
			<polygon class="st10" points="828.8,205.5 904.6,205.5 904.6,149.8 904.6,121.9 884.6,101.9 828.8,101.9 828.8,122.5 
				828.8,149.8 			"/>
			<g>
				<polygon points="883.9,122.7 904.6,122.7 883.9,101.9 				"/>
			</g>
		</g>
	</g>
	<line class="st11" x1="837.4" y1="126.2" x2="871.6" y2="126.2"/>
	<line class="st11" x1="837" y1="141.4" x2="893.8" y2="141.4"/>
	<line class="st11" x1="837" y1="148.9" x2="893.8" y2="148.9"/>
	<line class="st11" x1="837" y1="156.5" x2="893.8" y2="156.5"/>
	<line class="st11" x1="837" y1="164.2" x2="893.5" y2="164.2"/>
	<line class="st11" x1="877.1" y1="175.7" x2="893.5" y2="175.7"/>
</g>
<g>
	<g>
		<g>
			<path class="st2" d="M920.2,201.5v3.3c0,0.4,0.3,0.7,0.7,0.7h5.3c0.4,0,0.7-0.3,0.7-0.7v-3.3"/>
			<path d="M918.4,204.7v-3.3h3.6v2.2h3.1v-2.2h3.6v3.3c0,1.4-1.2,2.5-2.6,2.5H921C919.6,207.3,918.4,206.1,918.4,204.7z"/>
		</g>
		<g>
			<polygon points="918.4,124.6 918.4,122.8 923.6,111.4 928.8,122.8 928.8,124.6 925.2,124.6 925.2,123.6 923.6,120.2 922.1,123.6 
				922.1,124.6 			"/>
		</g>
		<rect x="918.4" y="123.4" class="st5" width="10.5" height="68"/>
		<rect x="918.4" y="194" class="st6" width="10.5" height="7.5"/>
		<g>
			<rect x="918.4" y="190.7" width="10.5" height="3.6"/>
		</g>
	</g>
</g>
<g>
	<path d="M1067.9,153.9c-4.3,0-7.7-3.5-7.7-7.7c0-4.3,3.5-7.7,7.7-7.7c4.3,0,7.7,3.5,7.7,7.7
		C1075.7,150.4,1072.2,153.9,1067.9,153.9z M1067.9,142.4c-2.1,0-3.7,1.7-3.7,3.7c0,2.1,1.7,3.7,3.7,3.7s3.7-1.7,3.7-3.7
		C1071.7,144.1,1070,142.4,1067.9,142.4z"/>
</g>
<polyline points="386.5,117.3 377.2,108 386.5,98.8 "/>
<polyline points="386.5,98.8 389.1,101.4 382.5,108 389.1,114.6 386.5,117.3 "/>
<g>
	<rect x="380.6" y="106.2" width="28.7" height="3.7"/>
</g>
<line class="st12" x1="163.8" y1="18.6" x2="337.8" y2="18.6"/>
</svg>
